<?xml version="1.0" ?>
<!-- Uploaded to: SVG Repo, www.svgrepo.com, Generator: SVG Repo Mixer Tools -->
<svg width="800px" height="800px" viewBox="0 0 64 64" xmlns="http://www.w3.org/2000/svg">
<defs>
<style>.cls-1,.cls-2{fill:none;}.cls-1,.cls-2,.cls-3{stroke:#000000;stroke-linejoin:round;stroke-width:2px;}.cls-1,.cls-3{stroke-linecap:round;}.cls-3{fill:#ffe8dc;}</style>
</defs>
<g id="deal">
<line class="cls-1" x1="3" x2="57" y1="60" y2="60"/>
<path class="cls-1" d="M50,18H12a2,2,0,0,0,0,4H50a2,2,0,0,0,0-4Z"/>
<path class="cls-1" d="M33,18.1462V20a2,2,0,0,1-2,2h0a2,2,0,0,1-2-2V17.5186"/>
<line class="cls-1" x1="27" x2="26" y1="60" y2="38"/>
<line class="cls-2" x1="36" x2="35" y1="38" y2="60"/>
<line class="cls-1" x1="31" x2="31" y1="42" y2="60"/>
<path class="cls-1" d="M29.3234,5H37a0,0,0,0,1,0,0V5a4,4,0,0,1-4,4H27a0,0,0,0,1,0,0V7.3234A2.3234,2.3234,0,0,1,29.3234,5Z"/>
<path class="cls-1" d="M27,9h8a0,0,0,0,1,0,0v9a0,0,0,0,1,0,0H31.1888A4.1888,4.1888,0,0,1,27,13.8112V9A0,0,0,0,1,27,9Z"/>
<rect class="cls-1" height="13" width="34" x="14" y="22"/>
<path d="M49,42a1,1,0,1,1-1-1A1,1,0,0,1,49,42Z"/>
<line class="cls-1" x1="47.5858" x2="50.4142" y1="8.5858" y2="11.4142"/>
<line class="cls-1" x1="50.4142" x2="47.5858" y1="8.5858" y2="11.4142"/>
<polyline class="cls-1" points="40 25 40 31 43 31"/>
<path class="cls-1" d="M20,25h2.7492A1.2508,1.2508,0,0,1,24,26.2508v3.4985A1.2508,1.2508,0,0,1,22.7492,31H20a0,0,0,0,1,0,0V25A0,0,0,0,1,20,25Z"/>
<polyline class="cls-1" points="30 25 27 25 27 31 30 31"/>
<line class="cls-1" x1="30" x2="27" y1="28" y2="28"/>
<polyline class="cls-1" points="32.634 31.074 33.634 25.074 35.634 25.074 36.634 31.074"/>
<line class="cls-1" x1="33.6343" x2="35.6343" y1="29.0736" y2="29.0736"/>
<circle class="cls-1" cx="17" cy="46" r="2"/>
<line class="cls-3" x1="20" x2="20" y1="18" y2="22"/>
<line class="cls-3" x1="41" x2="41" y1="18" y2="22"/>
<polyline class="cls-2" points="37 35 37 38 25 38 25 35"/>
</g>
</svg>